<svg width="62" height="62" viewBox="0 0 62 62" fill="none" xmlns="http://www.w3.org/2000/svg">
<path d="M52.6061 0C53.4163 0 54.1326 0.516569 54.3909 1.27968L55.9761 6.02272L60.7201 7.60765C61.4833 7.86593 62 8.58209 62 9.39216C62 10.2022 61.4833 10.9184 60.7201 11.1767L55.9761 12.7616L54.3909 17.5046C54.1326 18.2678 53.4163 18.7843 52.6061 18.7843C51.7958 18.7843 51.0795 18.2678 50.8212 17.5046L49.236 12.7616L44.492 11.1767C43.7288 10.9184 43.2121 10.2022 43.2121 9.39216C43.2121 8.58209 43.7288 7.86593 44.492 7.60765L49.236 6.02272L50.8212 1.27968C51.0795 0.516569 51.7958 0 52.6061 0ZM33.9826 13.3134C35.4504 11.8459 37.8341 11.8459 39.3019 13.3134L48.6958 22.7055C50.1636 24.1731 50.1636 26.5563 48.6958 28.0239L47.4159 29.3035C48.3436 31.8864 48.8485 34.6688 48.8485 37.5804C48.8485 51.0699 37.9163 62 24.4242 62C10.9322 62 0 51.0581 0 37.5686C0 24.0792 10.9322 13.149 24.4242 13.149C27.3246 13.149 30.1193 13.6539 32.7027 14.5931L33.9826 13.3134ZM13.1515 37.5686C13.1515 31.3463 18.2008 26.298 24.4242 26.298C25.986 26.298 27.2424 25.0418 27.2424 23.4804C27.2424 21.919 25.986 20.6628 24.4242 20.6628C15.089 20.6628 7.51515 28.2352 7.51515 37.5686C7.51515 39.1301 8.77159 40.3863 10.3333 40.3863C11.8951 40.3863 13.1515 39.1301 13.1515 37.5686Z" fill="#F44343"/>
</svg>
