<svg width="245" height="221" viewBox="0 0 245 221" fill="none" xmlns="http://www.w3.org/2000/svg">
<path d="M179.931 0C183.567 0.000155185 187.013 1.74407 189.166 4.74805L242.76 78.3994C246.013 82.8571 245.678 89.0104 242.042 93.1289L131.025 217.172C128.872 219.595 125.762 221 122.508 221C119.254 221 116.191 219.595 113.99 217.172L2.97461 93.1289C-0.709963 89.0103 -0.99704 82.8572 2.25684 78.3994L55.8506 4.74805C58.0039 1.79255 61.4494 0 65.0859 0H179.931ZM113.434 129.653C110.85 129.64 108.741 131.726 108.727 134.31L108.715 136.562C105.607 137.993 102.691 139.993 100.125 142.532C88.1867 154.343 88.0835 173.587 99.8945 185.525C111.706 197.464 130.96 197.578 142.898 185.767C154.837 173.955 154.94 154.712 143.129 142.773C140.58 140.197 137.697 138.176 134.614 136.702L134.627 134.449C134.641 131.865 132.553 129.756 129.97 129.742L113.434 129.653ZM106.704 149.182C108.086 147.815 110.298 147.826 111.665 149.208C113.032 150.59 113.02 152.802 111.639 154.169C106.132 159.617 106.084 168.506 111.532 174.013C112.899 175.395 112.887 177.607 111.505 178.974C110.123 180.34 107.912 180.328 106.545 178.946C98.3727 170.686 98.4437 157.354 106.704 149.182ZM116.249 105.794C115.352 105.345 114.266 105.514 113.549 106.224C112.832 106.933 112.651 108.018 113.091 108.919L115.841 114.504L113.03 120.06C112.581 120.956 112.752 122.043 113.461 122.76C114.17 123.476 115.254 123.658 116.155 123.219L121.741 120.469L127.297 123.278C128.194 123.727 129.28 123.558 129.997 122.849C130.714 122.139 130.895 121.055 130.455 120.153L127.705 114.567L130.516 109.012C130.965 108.115 130.794 107.029 130.085 106.312C129.376 105.596 128.292 105.414 127.391 105.854L121.805 108.604L116.249 105.794ZM170.694 24.0332C169.115 22.8706 166.914 23.0641 165.574 24.5176L122.508 71.8096L79.3936 24.5176C78.0537 23.0641 75.8525 22.8704 74.2734 24.0332C72.6943 25.2446 72.2637 27.4252 73.2686 29.1211L100.735 75.4922L30.2979 81.4033C28.336 81.5487 26.8048 83.2443 26.8047 85.2793C26.8047 87.3144 28.3359 88.9624 30.2979 89.1562L122.173 96.9082H122.795L214.671 89.1562C216.633 89.0107 218.164 87.3143 218.164 85.2793C218.164 83.2445 216.633 81.5973 214.671 81.4033L144.232 75.4434L171.699 29.1211C172.704 27.4252 172.273 25.1961 170.694 24.0332Z" fill="#A7EE43"/>
</svg>
