<svg width="62" height="56" viewBox="0 0 62 56" fill="none" xmlns="http://www.w3.org/2000/svg">
<path d="M14.1336 1.20325C14.6786 0.454287 15.5505 0 16.4708 0H45.5334C46.4537 0 47.3256 0.442009 47.8705 1.20325L61.4331 19.8658C62.2565 20.9954 62.1718 22.5547 61.2515 23.5983L33.1576 55.03C32.6126 55.6439 31.8255 56 31.0021 56C30.1786 56 29.4036 55.6439 28.8466 55.03L0.752722 23.5983C-0.179704 22.5547 -0.252361 20.9954 0.571081 19.8658L14.1336 1.20325ZM18.7958 6.08989C18.3962 6.39684 18.2872 6.94935 18.5415 7.37908L25.4923 19.1291L7.66721 20.6271C7.17072 20.6639 6.78322 21.0936 6.78322 21.6093C6.78322 22.125 7.17072 22.5424 7.66721 22.5915L30.9173 24.556C30.9658 24.556 31.0263 24.556 31.0747 24.556L54.3249 22.5915C54.8213 22.5547 55.2089 22.125 55.2089 21.6093C55.2089 21.0936 54.8213 20.6762 54.3249 20.6271L36.4998 19.1169L43.4506 7.37908C43.7049 6.94935 43.5959 6.38457 43.1963 6.08989C42.7967 5.79522 42.2396 5.84433 41.9006 6.21267L31.0021 18.196L20.0915 6.21267C19.7524 5.84433 19.1954 5.79522 18.7958 6.08989Z" fill="#A7EE43"/>
</svg>
